<svg xmlns="http://www.w3.org/2000/svg" id="checklist-on-clipboard" viewBox="0 0 64 64">
  <path d="m49,9H15c-2.76,0-5,2.24-5,5v42c0,2.76,2.24,5,5,5h34c2.76,0,5-2.24,5-5V14c0-2.76-2.24-5-5-5Z" style="fill:#fec107"></path>
  <rect width="36" height="44" x="14" y="13" rx="1" ry="1" style="fill:#f1f2f2"></rect>
  <path d="m36,7c0-2.21-1.79-4-4-4s-4,1.79-4,4h-4c-1.1,0-2,.9-2,2v4h20v-4c0-1.1-.9-2-2-2h-4Z" style="fill:#2196f3"></path>
  <path d="M46 21h-16c-.55 0-1-.45-1-1s.45-1 1-1h16c.55 0 1 .45 1 1s-.45 1-1 1ZM40 25h-10c-.55 0-1-.45-1-1s.45-1 1-1h10c.55 0 1 .45 1 1s-.45 1-1 1ZM46 34h-16c-.55 0-1-.45-1-1s.45-1 1-1h16c.55 0 1 .45 1 1s-.45 1-1 1ZM40 38h-10c-.55 0-1-.45-1-1s.45-1 1-1h10c.55 0 1 .45 1 1s-.45 1-1 1Z" style="fill:#d1d3d4"></path>
  <path d="m24,52h-4c-1.1,0-2-.9-2-2v-4c0-1.1.9-2,2-2h4c1.1,0,2,.9,2,2v4c0,1.1-.9,2-2,2Zm-4-6v4h4v-4h-4Z" style="fill:#fe5722"></path>
  <path d="M46 47h-16c-.55 0-1-.45-1-1s.45-1 1-1h16c.55 0 1 .45 1 1s-.45 1-1 1ZM40 51h-10c-.55 0-1-.45-1-1s.45-1 1-1h10c.55 0 1 .45 1 1s-.45 1-1 1Z" style="fill:#d1d3d4"></path>
  <path d="M21 26c-.26 0-.52-.1-.71-.29l-2-2c-.39-.39-.39-1.02 0-1.41s1.02-.39 1.41 0l1.23 1.23 4.3-5.16c.35-.42.98-.48 1.41-.13.42.35.48.98.13 1.41l-5 6c-.18.22-.44.35-.72.36-.02 0-.03 0-.05 0ZM21 39c-.26 0-.52-.1-.71-.29l-2-2c-.39-.39-.39-1.02 0-1.41s1.02-.39 1.41 0l1.23 1.23 4.3-5.16c.35-.42.98-.48 1.41-.13.42.35.48.98.13 1.41l-5 6c-.18.22-.44.35-.72.36-.02 0-.03 0-.05 0Z" style="fill:#4cb050"></path>
</svg>
